<?xml version="1.0" encoding="UTF-8"?>
<svg version="1.1" xmlns="http://www.w3.org/2000/svg" width="635" height="393">
<path d="M0 0 C0.93817566 -0.00637985 1.87635132 -0.0127597 2.84295654 -0.01933289 C3.85545471 -0.02044571 4.86795288 -0.02155853 5.91113281 -0.02270508 C6.95569641 -0.02603348 8.00026001 -0.02936188 9.07647705 -0.03279114 C11.28893595 -0.03785688 13.5014025 -0.04019957 15.71386719 -0.04003906 C19.08704367 -0.04221874 22.45988951 -0.06035958 25.83300781 -0.0793457 C27.98404836 -0.08228111 30.13509046 -0.08426492 32.28613281 -0.08520508 C33.79273468 -0.09598335 33.79273468 -0.09598335 35.32977295 -0.10697937 C40.77410611 -0.08936213 45.20349515 0.42542548 50.36425781 2.14526367 C52.11416016 2.33282227 52.11416016 2.33282227 53.89941406 2.52416992 C57.99140492 3.2576835 60.39459622 4.73050355 63.80175781 7.08276367 C64.85234375 7.79303711 65.90292969 8.50331055 66.98535156 9.23510742 C67.77039063 9.86545898 68.55542969 10.49581055 69.36425781 11.14526367 C69.36425781 11.80526367 69.36425781 12.46526367 69.36425781 13.14526367 C69.96109375 13.38631836 70.55792969 13.62737305 71.17285156 13.87573242 C76.06210916 16.70819003 78.49638247 22.65457575 80.29679871 27.8215332 C82.66709039 37.18949256 82.75031799 46.23429473 82.68325233 55.84936523 C82.66466014 58.76723119 82.66760816 61.68438949 82.67631531 64.60229492 C82.69798464 72.8874043 82.68700046 81.17222833 82.64916992 89.45727539 C82.62740338 94.54938696 82.63456701 99.64079371 82.65962791 104.73287964 C82.66321919 106.66577351 82.65557083 108.59872274 82.63637733 110.53152466 C82.61009701 113.22648618 82.6204471 115.91904036 82.63891602 118.61401367 C82.61351494 119.80473732 82.61351494 119.80473732 82.58760071 121.01951599 C82.63764364 124.01131897 82.7103222 126.4051369 84.74846458 128.71191406 C86.24027162 129.91672122 87.79920663 131.03726398 89.36425781 132.14526367 C89.36425781 132.80526367 89.36425781 133.46526367 89.36425781 134.14526367 C89.92113281 134.20713867 90.47800781 134.26901367 91.05175781 134.33276367 C94.31375299 135.47887009 95.9618455 137.68565106 98.36425781 140.14526367 C99.84925781 141.13526367 99.84925781 141.13526367 101.36425781 142.14526367 C104.46076201 144.2095998 106.8856153 146.37501616 109.36425781 149.14526367 C109.36425781 149.80526367 109.36425781 150.46526367 109.36425781 151.14526367 C110.35425781 151.47526367 111.34425781 151.80526367 112.36425781 152.14526367 C112.36425781 152.80526367 112.36425781 153.46526367 112.36425781 154.14526367 C113.32332031 154.29995117 113.32332031 154.29995117 114.30175781 154.45776367 C115.32269531 154.79807617 115.32269531 154.79807617 116.36425781 155.14526367 C116.69425781 156.13526367 117.02425781 157.12526367 117.36425781 158.14526367 C118.67829057 158.84920979 120.01628352 159.50872025 121.36425781 160.14526367 C124.11425781 162.14526367 124.11425781 162.14526367 126.36425781 164.14526367 C126.36425781 164.80526367 126.36425781 165.46526367 126.36425781 166.14526367 C126.98300781 166.43401367 127.60175781 166.72276367 128.23925781 167.02026367 C130.36425781 168.14526367 130.36425781 168.14526367 132.36425781 170.14526367 C132.07657551 171.82041375 131.73248132 173.48595649 131.36425781 175.14526367 C131.3203137 177.49902016 131.32465599 179.85393012 131.36425781 182.20776367 C131.38357095 187.13261266 131.37564186 192.03899119 131.11425781 196.95776367 C131.06785156 197.91295898 131.02144531 198.8681543 130.97363281 199.85229492 C130.36425781 202.14526367 130.36425781 202.14526367 128.37597656 203.35229492 C127.71210937 203.61397461 127.04824219 203.8756543 126.36425781 204.14526367 C126.05488281 204.76401367 125.74550781 205.38276367 125.42675781 206.02026367 C123.97874096 208.91629738 121.98892301 210.30799804 119.36425781 212.14526367 C118.70425781 212.14526367 118.04425781 212.14526367 117.36425781 212.14526367 C117.36425781 212.80526367 117.36425781 213.46526367 117.36425781 214.14526367 C116.70425781 214.14526367 116.04425781 214.14526367 115.36425781 214.14526367 C115.36425781 214.80526367 115.36425781 215.46526367 115.36425781 216.14526367 C113.3773605 217.49804482 111.37680564 218.83094673 109.36425781 220.14526367 C109.03425781 220.80526367 108.70425781 221.46526367 108.36425781 222.14526367 C107.70425781 222.14526367 107.04425781 222.14526367 106.36425781 222.14526367 C106.36425781 222.80526367 106.36425781 223.46526367 106.36425781 224.14526367 C105.37425781 224.47526367 104.38425781 224.80526367 103.36425781 225.14526367 C102.84863281 225.66088867 102.33300781 226.17651367 101.80175781 226.70776367 C101.32738281 227.18213867 100.85300781 227.65651367 100.36425781 228.14526367 C99.70425781 228.14526367 99.04425781 228.14526367 98.36425781 228.14526367 C98.15800781 228.70213867 97.95175781 229.25901367 97.73925781 229.83276367 C95.7874275 233.11538739 93.42194787 234.85199613 90.36425781 237.14526367 C89.70425781 237.14526367 89.04425781 237.14526367 88.36425781 237.14526367 C88.36425781 237.80526367 88.36425781 238.46526367 88.36425781 239.14526367 C87.14715874 239.97192032 87.14715874 239.97192032 85.9054718 240.8152771 C83.06128366 242.95927564 83.06128366 242.95927564 82.72502136 246.44082642 C82.71835953 247.75561981 82.71169769 249.07041321 82.70483398 250.42504883 C82.69435028 251.15576536 82.68386658 251.8864819 82.67306519 252.63934135 C82.64416928 255.07142856 82.65064292 257.50209632 82.65722656 259.93432617 C82.64406603 261.65516883 82.62874875 263.37599618 82.61140442 265.09680176 C82.57113068 269.70356321 82.56133015 274.30993052 82.55737305 278.91684723 C82.54804233 283.65830801 82.51019638 288.39953794 82.47558594 293.14086914 C82.40144635 304.14231394 82.37529919 315.14359515 82.36425781 326.14526367 C82.36335396 326.91628418 82.3624501 327.68730469 82.36151886 328.48168945 C82.33909908 345.48470288 82.33909908 345.48470288 82.40014648 362.48754883 C82.40455246 363.43239136 82.40895844 364.37723389 82.41349792 365.35070801 C82.42204537 367.07656489 82.43460757 368.80240887 82.45210266 370.52819824 C82.46033837 372.40076423 82.41823924 374.27345781 82.36425781 376.14526367 C80.5555432 377.95397828 78.07412474 377.27162189 75.66635132 377.28079224 C74.43980331 377.27775589 74.43980331 377.27775589 73.18847656 377.2746582 C71.90319565 377.27728668 71.90319565 377.27728668 70.59194946 377.27996826 C67.74519862 377.28438784 64.89850935 377.28144842 62.05175781 377.27807617 C60.08260079 377.27874918 58.11344385 377.27971918 56.14428711 377.28097534 C52.01154797 377.28245246 47.87883039 377.28029732 43.74609375 377.27563477 C38.43601261 377.26993747 33.125982 377.2732164 27.81590271 377.27920723 C23.74800228 377.28281247 19.68011392 377.28167443 15.61221313 377.27907944 C13.65369664 377.27841007 11.69517906 377.27923894 9.73666382 377.28155899 C7.00442582 377.28408491 4.27227085 377.28024579 1.54003906 377.2746582 C0.31349106 377.27769455 0.31349106 377.27769455 -0.93783569 377.28079224 C-6.52147973 377.25952613 -6.52147973 377.25952613 -7.63574219 376.14526367 C-7.73669783 373.49070174 -7.77545217 370.86271191 -7.76855469 368.20776367 C-7.76951141 367.41249268 -7.77046814 366.61722168 -7.77145386 365.79785156 C-7.77213562 364.11319907 -7.77028161 362.42854396 -7.76611328 360.74389648 C-7.76076494 358.15627171 -7.76605838 355.56882051 -7.77246094 352.98120117 C-7.77180016 351.34838829 -7.77051899 349.71557551 -7.76855469 348.08276367 C-7.77057892 347.30360596 -7.77260315 346.52444824 -7.77468872 345.72167969 C-7.75069323 340.26021472 -7.75069323 340.26021472 -6.63574219 339.14526367 C-5.28479237 339.05257368 -3.92907128 339.02779041 -2.57495117 339.03173828 C-1.71413437 339.03181381 -0.85331757 339.03188934 0.03358459 339.03196716 C0.96899582 339.03712845 1.90440704 339.04228973 2.86816406 339.04760742 C3.82117905 339.04902237 4.77419403 339.05043732 5.75608826 339.05189514 C8.81300946 339.05751215 11.86985858 339.07006751 14.92675781 339.08276367 C16.99381405 339.08777648 19.06087143 339.09233977 21.12792969 339.09643555 C26.20673369 339.10748711 31.28548351 339.12476312 36.36425781 339.14526367 C36.35503988 338.56603433 36.34582195 337.98680498 36.33632469 337.39002323 C36.11505379 323.26715451 35.949797 309.14454701 35.84613609 295.0203104 C35.79466716 288.1896631 35.72455958 281.36017585 35.60986328 274.53027344 C35.49918017 267.93617883 35.44137745 261.34297034 35.41548538 254.74790764 C35.3970398 252.2348022 35.36101767 249.72176101 35.30695724 247.20916939 C34.87807772 226.44589751 34.87807772 226.44589751 38.51641846 221.69161987 C41.03046143 219.41300693 43.42925613 217.82029735 46.36425781 216.14526367 C47.69861507 214.81295505 49.03209781 213.4797693 50.36425781 212.14526367 C51.35425781 211.81526367 52.34425781 211.48526367 53.36425781 211.14526367 C54.70253085 209.4825608 56.03615567 207.81610186 57.36425781 206.14526367 C58.02425781 206.14526367 58.68425781 206.14526367 59.36425781 206.14526367 C59.36425781 205.48526367 59.36425781 204.82526367 59.36425781 204.14526367 C60.781145 203.18448324 62.2029002 202.23006036 63.64892578 201.3137207 C67.07820676 198.97774878 69.9614141 195.98431521 72.95214844 193.1237793 C75.91817399 190.33425721 78.86258211 188.19883106 82.36425781 186.14526367 C82.69425781 185.48526367 83.02425781 184.82526367 83.36425781 184.14526367 C82.62175781 183.89776367 81.87925781 183.65026367 81.11425781 183.39526367 C78.08471886 182.01820051 76.63487662 180.55349574 74.36425781 178.14526367 C73.28860544 177.26083839 72.20489999 176.3861365 71.11425781 175.52026367 C70.20675781 174.73651367 69.29925781 173.95276367 68.36425781 173.14526367 C68.36425781 172.48526367 68.36425781 171.82526367 68.36425781 171.14526367 C67.46707031 170.71213867 67.46707031 170.71213867 66.55175781 170.27026367 C64.36425781 169.14526367 64.36425781 169.14526367 61.36425781 167.14526367 C61.36425781 166.48526367 61.36425781 165.82526367 61.36425781 165.14526367 C60.6153125 164.8900293 59.86636719 164.63479492 59.09472656 164.37182617 C56.20809041 163.07511122 54.79932106 161.83160152 52.67675781 159.52026367 C48.90240496 155.56617973 44.83599085 152.27888409 40.46582031 149.00463867 C37.80692842 146.65216183 36.54151776 144.62435883 36.11536884 141.06848049 C36.11591361 140.32388104 36.11645838 139.5792816 36.11701965 138.81211853 C36.11282516 137.95271164 36.10863068 137.09330475 36.10430908 136.20785522 C36.10992859 135.27317413 36.1155481 134.33849304 36.12133789 133.37548828 C36.11943954 132.38485886 36.1175412 131.39422943 36.11558533 130.37358093 C36.11187976 127.098176 36.12257835 123.82299266 36.13378906 120.54760742 C36.13498105 118.2736463 36.13543399 115.99968468 36.13517761 113.72572327 C36.13674208 108.96018389 36.14502941 104.19471969 36.15844727 99.42919922 C36.17544663 93.31339719 36.17926129 87.19767771 36.17850208 81.08185482 C36.17877368 76.38679717 36.18425311 71.69175764 36.19150352 66.99670601 C36.19469074 64.74119771 36.19665772 62.48568735 36.19739723 60.23017693 C36.19955967 57.08196367 36.20830165 53.93383886 36.21899414 50.78564453 C36.21854095 49.84893921 36.21808777 48.91223389 36.21762085 47.94714355 C36.22188583 47.09055649 36.22615082 46.23396942 36.23054504 45.35142517 C36.23305881 44.23509154 36.23305881 44.23509154 36.23562336 43.09620571 C36.36425781 41.14526367 36.36425781 41.14526367 37.36425781 38.14526367 C36.75437012 38.21527588 36.14448242 38.28528809 35.51611328 38.35742188 C27.86553228 39.1516946 20.25009606 39.33147832 12.56445312 39.33056641 C10.47148136 39.33278249 8.37901397 39.35109953 6.28613281 39.36987305 C4.93978042 39.3728029 3.59342557 39.37479042 2.24707031 39.37573242 C0.44326904 39.38189575 0.44326904 39.38189575 -1.39697266 39.38818359 C-4.5700263 39.15019261 -6.78104418 38.50459557 -9.63574219 37.14526367 C-9.30574219 36.15526367 -8.97574219 35.16526367 -8.63574219 34.14526367 C-8.64313695 31.8943714 -8.7170206 29.64347242 -8.82714844 27.39526367 C-8.88536015 26.0515253 -8.9432944 24.70777488 -9.00097656 23.36401367 C-9.09814076 21.25050783 -9.19864284 19.13726166 -9.30444336 17.02416992 C-9.40453231 14.98149948 -9.49161693 12.93858805 -9.57714844 10.89526367 C-9.63588135 9.67323242 -9.69461426 8.45120117 -9.75512695 7.19213867 C-9.63574219 4.14526367 -9.63574219 4.14526367 -7.63574219 1.14526367 C-4.77492697 0.1916586 -2.96984331 0.01372275 0 0 Z " fill="#060606" transform="translate(489.6357421875,10.854736328125)"/>
<path d="M0 0 C2.18488415 0.00538933 4.36956516 0.00000444 6.55444336 -0.00634766 C13.59612905 -0.00934425 20.50373639 0.14241601 27.48999023 1.13037109 C28.45379121 5.1755596 28.61895648 8.95770982 28.62280273 13.11083984 C28.62375946 13.76490311 28.62471619 14.41896637 28.6257019 15.09284973 C28.62637912 16.4669301 28.62455697 17.84101376 28.62036133 19.21508789 C28.61498049 21.32168693 28.62033503 23.42807528 28.62670898 25.53466797 C28.62604863 26.87255906 28.62476835 28.21045003 28.62280273 29.54833984 C28.6216748 30.76287842 28.62054688 31.97741699 28.61938477 33.22875977 C28.48999023 36.13037109 28.48999023 36.13037109 27.48999023 38.13037109 C19.43776266 39.82952072 10.77642229 39.28587767 2.58032227 39.26074219 C0.46550566 39.25530818 -1.64910522 39.26075953 -3.76391602 39.26708984 C-5.11678106 39.2664302 -6.46964599 39.26515141 -7.82250977 39.26318359 C-9.64202148 39.2614917 -9.64202148 39.2614917 -11.49829102 39.25976562 C-14.51000977 39.13037109 -14.51000977 39.13037109 -17.51000977 38.13037109 C-17.49748169 39.23933746 -17.48495361 40.34830383 -17.4720459 41.49087524 C-17.35349625 51.99383461 -17.23577996 62.49680304 -17.11885834 72.99978065 C-17.05873639 78.39813324 -16.9983312 83.79648233 -16.93725586 89.19482422 C-16.87821401 94.41438432 -16.819946 99.63395257 -16.76219177 104.85352707 C-16.74013756 106.83479489 -16.71781475 108.81605975 -16.69520569 110.79732132 C-16.64368574 115.31889326 -16.59527375 119.8404199 -16.55664062 124.36212158 C-16.53075637 127.38254001 -16.48768411 130.40167691 -16.42626953 133.42156982 C-16.40814209 134.67173889 -16.39001465 135.92190796 -16.37133789 137.20996094 C-16.35010864 138.27097015 -16.32887939 139.33197937 -16.30700684 140.42514038 C-16.51375903 143.18033408 -17.08666675 144.79007514 -18.51000977 147.13037109 C-19.17000977 147.13037109 -19.83000977 147.13037109 -20.51000977 147.13037109 C-20.51000977 147.79037109 -20.51000977 148.45037109 -20.51000977 149.13037109 C-21.12875977 149.21287109 -21.74750977 149.29537109 -22.38500977 149.38037109 C-24.64954884 149.90297408 -24.64954884 149.90297408 -25.38500977 151.88037109 C-27.075133 155.26061756 -29.49319633 156.86776102 -32.51000977 159.13037109 C-33.17000977 159.13037109 -33.83000977 159.13037109 -34.51000977 159.13037109 C-34.84000977 160.12037109 -35.17000977 161.11037109 -35.51000977 162.13037109 C-38.95445421 165.13037109 -38.95445421 165.13037109 -41.51000977 165.13037109 C-41.84000977 166.12037109 -42.17000977 167.11037109 -42.51000977 168.13037109 C-44.03344727 169.73583984 -44.03344727 169.73583984 -45.88500977 171.31787109 C-46.49086914 171.84767578 -47.09672852 172.37748047 -47.72094727 172.92333984 C-49.51000977 174.13037109 -49.51000977 174.13037109 -52.51000977 174.13037109 C-52.71625977 174.68724609 -52.92250977 175.24412109 -53.13500977 175.81787109 C-55.33517646 179.51815144 -58.64669696 182.19871469 -62.51000977 184.13037109 C-62.51000977 184.79037109 -62.51000977 185.45037109 -62.51000977 186.13037109 C-61.85000977 186.62537109 -61.19000977 187.12037109 -60.51000977 187.63037109 C-59.85000977 188.12537109 -59.19000977 188.62037109 -58.51000977 189.13037109 C-58.51000977 189.79037109 -58.51000977 190.45037109 -58.51000977 191.13037109 C-57.77782227 191.38044922 -57.04563477 191.63052734 -56.29125977 191.88818359 C-53.2823662 193.23204336 -51.41150164 194.76454241 -49.01000977 197.00537109 C-46.53481518 199.28635174 -44.11070329 201.44003734 -41.44750977 203.50537109 C-40.80813477 204.04162109 -40.16875977 204.57787109 -39.51000977 205.13037109 C-39.51000977 205.79037109 -39.51000977 206.45037109 -39.51000977 207.13037109 C-38.30344727 207.56349609 -38.30344727 207.56349609 -37.07250977 208.00537109 C-34.51000977 209.13037109 -34.51000977 209.13037109 -33.51000977 211.13037109 C-32.52000977 211.46037109 -31.53000977 211.79037109 -30.51000977 212.13037109 C-30.51000977 212.79037109 -30.51000977 213.45037109 -30.51000977 214.13037109 C-29.52000977 214.46037109 -28.53000977 214.79037109 -27.51000977 215.13037109 C-27.51000977 215.79037109 -27.51000977 216.45037109 -27.51000977 217.13037109 C-26.97375977 217.35724609 -26.43750977 217.58412109 -25.88500977 217.81787109 C-19.62667456 221.27642476 -19.62667456 221.27642476 -17.51000977 224.13037109 C-15.02712085 234.11773942 -16.36523394 245.92127258 -16.37719727 256.16162109 C-16.37652236 258.20463065 -16.37555079 260.24764013 -16.3742981 262.29064941 C-16.3728299 266.55705536 -16.37494734 270.82344026 -16.37963867 275.08984375 C-16.3853354 280.53317185 -16.38205168 285.97645062 -16.37606621 291.41977692 C-16.37243683 295.63389451 -16.37361007 299.84800058 -16.376194 304.06211853 C-16.3768567 306.06819159 -16.37605805 308.07426573 -16.37371445 310.08033752 C-16.35541685 330.14051146 -16.35541685 330.14051146 -17.51000977 339.13037109 C-15.76204102 339.0046875 -15.76204102 339.0046875 -13.97875977 338.87646484 C-0.42175031 338.00150296 12.93403802 338.35639713 26.48999023 339.13037109 C27.69244266 342.90251331 27.61940443 346.51301578 27.62280273 350.45068359 C27.62375946 351.15055389 27.62471619 351.85042419 27.6257019 352.57150269 C27.62638052 354.04571625 27.6245485 355.51993285 27.62036133 356.99414062 C27.61499239 359.25446229 27.6203253 361.5145867 27.62670898 363.77490234 C27.62604846 365.20849653 27.62476784 366.6420906 27.62280273 368.07568359 C27.6216748 369.38037598 27.62054688 370.68506836 27.61938477 372.02929688 C27.48999023 375.13037109 27.48999023 375.13037109 26.48999023 377.13037109 C-2.88000977 377.13037109 -32.25000977 377.13037109 -62.51000977 377.13037109 C-63.37665155 373.66380395 -63.62402258 371.25069773 -63.59661865 367.7409668 C-63.59076752 366.64740875 -63.58491638 365.55385071 -63.57888794 364.42715454 C-63.56743744 363.23222382 -63.55598694 362.03729309 -63.54418945 360.80615234 C-63.53208548 358.86882084 -63.51998939 356.93148927 -63.50819063 354.99415588 C-63.49476532 352.91416923 -63.47903218 350.83420935 -63.46291351 348.75424194 C-63.43028158 344.41781483 -63.40958845 340.08138298 -63.3916626 335.74487305 C-63.3870329 334.64660265 -63.3870329 334.64660265 -63.38230968 333.52614498 C-63.37600201 332.02920031 -63.36971226 330.53225556 -63.36344004 329.03531075 C-63.32043608 318.94153838 -63.2685413 308.84794032 -63.18774414 298.75439453 C-63.13330758 291.94238727 -63.09658236 285.13053638 -63.08023763 278.3183279 C-63.07085655 274.71413003 -63.0522621 271.11049549 -63.01192474 267.50650024 C-62.96708675 263.4889983 -62.96104106 259.472341 -62.95825195 255.45458984 C-62.92893082 253.66219376 -62.92893082 253.66219376 -62.89901733 251.83358765 C-62.71981462 245.51892053 -62.71981462 245.51892053 -66.04449463 240.48510742 C-66.85811462 240.03804443 -67.67173462 239.59098145 -68.51000977 239.13037109 C-68.51000977 238.47037109 -68.51000977 237.81037109 -68.51000977 237.13037109 C-69.12875977 237.04787109 -69.74750977 236.96537109 -70.38500977 236.88037109 C-73.18506395 235.89211667 -73.25114909 234.72677124 -74.51000977 232.13037109 C-75.83454038 231.44638216 -77.16916896 230.78180655 -78.51000977 230.13037109 C-79.65608997 229.2517482 -80.7721955 228.33285826 -81.85766602 227.38037109 C-82.76548828 226.59146484 -82.76548828 226.59146484 -83.69165039 225.78662109 C-84.31233398 225.24005859 -84.93301758 224.69349609 -85.57250977 224.13037109 C-86.8121068 223.04556378 -88.05294725 221.96217527 -89.29516602 220.88037109 C-89.84052002 220.40083984 -90.38587402 219.92130859 -90.94775391 219.42724609 C-92.69081501 217.93425366 -92.69081501 217.93425366 -95.51000977 216.13037109 C-95.51000977 215.47037109 -95.51000977 214.81037109 -95.51000977 214.13037109 C-96.10813477 213.84162109 -96.70625977 213.55287109 -97.32250977 213.25537109 C-99.51000977 212.13037109 -99.51000977 212.13037109 -102.51000977 210.13037109 C-102.51000977 209.47037109 -102.51000977 208.81037109 -102.51000977 208.13037109 C-103.62375977 207.75912109 -103.62375977 207.75912109 -104.76000977 207.38037109 C-107.74024063 206.0257207 -109.40920228 204.620217 -111.51000977 202.13037109 C-111.51000977 201.47037109 -111.51000977 200.81037109 -111.51000977 200.13037109 C-112.50000977 199.80037109 -113.49000977 199.47037109 -114.51000977 199.13037109 C-115.09630276 192.63927004 -115.59789711 186.14729985 -115.76000977 179.63037109 C-115.78579102 178.69193359 -115.81157227 177.75349609 -115.83813477 176.78662109 C-115.15206321 171.23270852 -111.65661664 168.04275931 -107.63500977 164.44287109 C-106.79196289 163.67587891 -105.94891602 162.90888672 -105.08032227 162.11865234 C-102.59015639 160.19236901 -100.42848139 159.23052794 -97.51000977 158.13037109 C-96.82514251 156.80629441 -96.16130774 155.47127869 -95.51000977 154.13037109 C-90.48151974 149.13037109 -90.48151974 149.13037109 -87.51000977 149.13037109 C-87.51000977 148.47037109 -87.51000977 147.81037109 -87.51000977 147.13037109 C-84.0484713 144.13037109 -84.0484713 144.13037109 -81.51000977 144.13037109 C-81.18000977 143.14037109 -80.85000977 142.15037109 -80.51000977 141.13037109 C-76.05286691 137.13037109 -76.05286691 137.13037109 -73.51000977 137.13037109 C-73.51000977 136.47037109 -73.51000977 135.81037109 -73.51000977 135.13037109 C-72.89125977 135.04787109 -72.27250977 134.96537109 -71.63500977 134.88037109 C-69.33028117 134.33642671 -69.33028117 134.33642671 -68.44750977 132.13037109 C-68.13813477 131.47037109 -67.82875977 130.81037109 -67.51000977 130.13037109 C-66.52000977 129.80037109 -65.53000977 129.47037109 -64.51000977 129.13037109 C-63.34224232 125.62706876 -63.39708727 122.90414506 -63.41235352 119.20654297 C-63.41381378 118.50510666 -63.41527405 117.80367035 -63.41677856 117.08097839 C-63.42058539 115.55538735 -63.42670284 114.02980075 -63.43484497 112.50422668 C-63.44765889 110.07080201 -63.45413971 107.63743228 -63.45898438 105.20397949 C-63.47233404 99.14505207 -63.49623484 93.08617518 -63.52038574 87.02728271 C-63.54037243 81.92814909 -63.55592002 76.8290369 -63.56594849 71.72987366 C-63.57229425 69.36687364 -63.58481188 67.00396334 -63.59765625 64.64099121 C-63.62554347 56.69497328 -63.48638082 48.76860961 -63.12158203 40.83032227 C-63.07375202 39.64347336 -63.07375202 39.64347336 -63.02495575 38.43264771 C-62.72032782 32.59272091 -61.54972155 27.96320347 -58.44750977 22.94287109 C-58.07045898 22.26546875 -57.6934082 21.58806641 -57.30493164 20.89013672 C-56.40560561 19.28501051 -55.46300552 17.70422513 -54.51000977 16.13037109 C-53.85000977 16.13037109 -53.19000977 16.13037109 -52.51000977 16.13037109 C-52.18000977 15.14037109 -51.85000977 14.15037109 -51.51000977 13.13037109 C-50.85000977 13.13037109 -50.19000977 13.13037109 -49.51000977 13.13037109 C-49.18000977 12.14037109 -48.85000977 11.15037109 -48.51000977 10.13037109 C-36.03406932 -1.4976899 -15.90631976 -0.04665136 0 0 Z " fill="#060606" transform="translate(130.510009765625,10.86962890625)"/>
<path d="M0 0 C1.17046875 0.55171875 2.3409375 1.1034375 3.546875 1.671875 C9.13996206 4.37323399 14.16157236 7.06929802 19 11 C19.99 11.33 20.98 11.66 22 12 C22 12.66 22 13.32 22 14 C22.556875 14.2475 23.11375 14.495 23.6875 14.75 C27.82562199 16.9868227 31.71867474 19.81757035 34 24 C33.9375 26.625 33.9375 26.625 33 29 C31 30.125 31 30.125 29 31 C28.67 31.99 28.34 32.98 28 34 C26.2578125 35.71875 26.2578125 35.71875 24.125 37.5 C21.14615469 40.00265321 21.14615469 40.00265321 18.3671875 42.71875 C17 44 17 44 15 44 C15 44.66 15 45.32 15 46 C14.34 46 13.68 46 13 46 C13 46.66 13 47.32 13 48 C8.52941176 52 8.52941176 52 6 52 C6 52.66 6 53.32 6 54 C1.72009555 53.52445506 -0.12698311 51.01316405 -3 48 C-4.64639965 46.64172029 -6.31295807 45.30745749 -8 44 C-9.14275391 43.02933594 -9.14275391 43.02933594 -10.30859375 42.0390625 C-22.95248679 32.45979956 -42.80563254 29.46162596 -58.23828125 31.42578125 C-67.75185385 33.4038508 -77.33988391 36.59397602 -86 41 C-86.495 41.99 -86.495 41.99 -87 43 C-88.0725 43.5775 -89.145 44.155 -90.25 44.75 C-93.03817552 46.26145449 -94.84632583 47.76146911 -96.8125 50.25 C-97.534375 51.1575 -98.25625 52.065 -99 53 C-99.66 53 -100.32 53 -101 53 C-101.226875 53.66 -101.45375 54.32 -101.6875 55 C-102.76314741 57.45862265 -103.81928086 59.25401919 -105.3125 61.4375 C-114.74789685 76.41654248 -115.80595452 94.05977104 -112 111 C-109.42240161 118.80540357 -106.04950724 127.25296812 -100 133 C-100 133.66 -100 134.32 -100 135 C-99.44828125 135.25007812 -98.8965625 135.50015625 -98.328125 135.7578125 C-95.58032555 137.22392026 -93.2328236 138.99514785 -90.75 140.875 C-86.27839001 144.13616103 -82.1388929 146.9495477 -77 149 C-75.95328125 149.44472656 -74.9065625 149.88945312 -73.828125 150.34765625 C-55.67281505 157.4060235 -35.98527179 155.38357037 -18.00683594 148.89135742 C-17.34458008 148.59720947 -16.68232422 148.30306152 -16 148 C-15.10216797 147.68272949 -14.20433594 147.36545898 -13.27929688 147.03857422 C-10.84878786 145.26964821 -10.84878786 145.26964821 -10.57550049 142.98231506 C-10.43436762 140.23342249 -10.46571501 137.52874931 -10.546875 134.77734375 C-10.55632141 133.76209122 -10.56576782 132.74683868 -10.57550049 131.70082092 C-10.61014123 128.44557385 -10.67883415 125.19213537 -10.75 121.9375 C-10.8001917 118.70809849 -10.84328344 115.47872356 -10.88165283 112.24916077 C-10.90774891 110.23995058 -10.94174025 108.2308215 -10.98504639 106.22190857 C-11.09218084 100.07335569 -10.75297069 94.10349245 -10 88 C-0.74767236 87.05794482 8.45644728 86.89027917 17.75 86.875 C18.91708496 86.87048828 20.08416992 86.86597656 21.28662109 86.86132812 C22.38312988 86.86326172 23.47963867 86.86519531 24.609375 86.8671875 C25.59905273 86.86831543 26.58873047 86.86944336 27.60839844 86.87060547 C30 87 30 87 32 88 C33.57342533 96.54071455 33.14685317 105.58294969 33.1328125 114.234375 C33.13376923 115.55238098 33.13472595 116.87038696 33.13571167 118.22833252 C33.13717254 120.99484452 33.13508523 123.76132387 33.13037109 126.52783203 C33.12465225 130.05340015 33.12797666 133.57889246 33.13394356 137.10445786 C33.13844462 140.50193617 33.13528588 143.89939454 33.1328125 147.296875 C33.13483673 148.5522406 33.13686096 149.8076062 33.13894653 151.10101318 C33.09469398 167.69388444 33.09469398 167.69388444 30.1796875 171.171875 C29.41914063 171.69265625 28.65859375 172.2134375 27.875 172.75 C27.0603125 173.3171875 26.245625 173.884375 25.40625 174.46875 C24.6121875 174.9740625 23.818125 175.479375 23 176 C22.05640625 176.60328125 22.05640625 176.60328125 21.09375 177.21875 C17.8066082 179.19103508 14.37981939 180.71983411 10.85595703 182.21044922 C9.13077541 182.94436626 7.41642523 183.70360254 5.703125 184.46484375 C-3.69003247 188.47074914 -13.00547791 190.78132086 -23.03979492 192.61450195 C-24.39591154 192.8811987 -25.74443292 193.18852805 -27.08422852 193.52783203 C-41.93470449 197.18793405 -64.56325474 196.81224842 -79 192 C-80.87363363 191.5566849 -82.74881763 191.1199014 -84.625 190.6875 C-94.59568397 188.19794096 -103.73952637 184.41611956 -112.66015625 179.33203125 C-114.74383714 178.14582894 -116.84523911 177.05001051 -119 176 C-119 175.34 -119 174.68 -119 174 C-119.804375 173.62875 -119.804375 173.62875 -120.625 173.25 C-125.84095899 170.50475843 -129.98258693 167.2976977 -134 163 C-134.68191406 162.27683594 -135.36382812 161.55367187 -136.06640625 160.80859375 C-149.5558942 146.22351287 -156.17871397 131.03543607 -161 112 C-161.17958252 111.38979004 -161.35916504 110.77958008 -161.54418945 110.15087891 C-166.4425449 87.0365182 -160.31179175 63.06814185 -149 43 C-148.64389648 42.36634521 -148.28779297 41.73269043 -147.92089844 41.07983398 C-144.18093419 34.47833431 -144.18093419 34.47833431 -142 32 C-141.34 32 -140.68 32 -140 32 C-139.73316406 31.41863281 -139.46632813 30.83726562 -139.19140625 30.23828125 C-131.29974099 15.4123003 -112.82946602 5.87233203 -97.7512207 0.06103516 C-96.01310377 -0.60928663 -94.27960002 -1.29181123 -92.55297852 -1.99121094 C-85.37971943 -4.78604074 -78.36016763 -6.20043329 -70.75 -7.25 C-68.96166748 -7.50257568 -68.96166748 -7.50257568 -67.13720703 -7.76025391 C-45.47464423 -10.67438086 -20.06986373 -9.49412715 0 0 Z " fill="#050505" transform="translate(482,102)"/>
<path d="M0 0 C1.4340205 0.13013799 2.87295411 0.21746789 4.3125 0.25 C17.62303338 1.40832123 31.98379083 7.65586055 43 15 C42.41901081 19.33805264 41.35116029 22.98275423 39.625 27 C39.17769531 28.04414062 38.73039063 29.08828125 38.26953125 30.1640625 C36.93067684 33.15485726 35.46519853 36.06960294 34 39 C33.67 39.99 33.34 40.98 33 42 C31.94011755 45.17964735 30.55331576 48.034579 29 51 C27.53932801 50.54917531 26.08151968 50.08906463 24.625 49.625 C23.81289063 49.36976563 23.00078125 49.11453125 22.1640625 48.8515625 C20 48 20 48 18 46 C16.54020066 45.44599646 15.05715794 44.95158795 13.5625 44.5 C10.53797225 43.58317446 8.68542804 42.79028536 6 41 C-5.18333186 36.86565419 -16.90500025 35.52198372 -28.75 35.5 C-29.831604 35.49403809 -30.91320801 35.48807617 -32.02758789 35.48193359 C-38.53857395 35.58405481 -43.98639538 36.49803405 -50 39 C-50.65693848 39.27215332 -51.31387695 39.54430664 -51.99072266 39.82470703 C-53.66626254 40.53634473 -55.33375902 41.26685397 -57 42 C-57.99 42.33 -58.98 42.66 -60 43 C-60 43.66 -60 44.32 -60 45 C-61 46 -62 47 -63 48 C-65.55904074 51.63653158 -65.66892812 55.71390498 -65 60 C-62.71049863 64.4942064 -60.47168042 66.76415979 -56 69 C-54.2984375 69.9590625 -54.2984375 69.9590625 -52.5625 70.9375 C-43.90338759 75.1936739 -34.33672292 77.07738555 -24.86328125 78.5078125 C-21.08032926 79.15808801 -17.44848268 80.16553849 -13.76171875 81.22265625 C-10.95885298 82.01158169 -8.14444111 82.69854443 -5.3125 83.375 C9.45341729 87.06167896 22.98684987 91.33087916 35 101 C35.99 101.7425 36.98 102.485 38 103.25 C38.99 104.11625 38.99 104.11625 40 105 C40 105.66 40 106.32 40 107 C40.66 107 41.32 107 42 107 C46.62441313 112.47627871 48.80221928 118.23428289 51 125 C51.33 125.99 51.66 126.98 52 128 C53.48949078 145.34219771 51.74678428 158.91224651 41 173 C40.58492187 173.59039062 40.16984375 174.18078125 39.7421875 174.7890625 C31.38745162 185.74527303 15.54671822 194.30784549 2.1953125 196.578125 C-0.20959904 197.00395903 -0.20959904 197.00395903 -3.32421875 197.9765625 C-14.68027812 201.13839837 -26.30173516 201.33194685 -38 201 C-39.19367188 200.99355469 -40.38734375 200.98710937 -41.6171875 200.98046875 C-60.12154587 200.45233167 -79.23850984 195.82482582 -96 188 C-97.10214844 187.50886719 -98.20429688 187.01773438 -99.33984375 186.51171875 C-101.90459017 185.36356619 -104.45681167 184.1949284 -107 183 C-107 182.34 -107 181.68 -107 181 C-107.86625 180.814375 -107.86625 180.814375 -108.75 180.625 C-111.13741194 179.96183002 -112.95313022 179.41163433 -115 178 C-116.49318624 174.02548955 -115.69860786 171.48350294 -114.00415039 167.68164062 C-113.69340576 167.02357422 -113.38266113 166.36550781 -113.0625 165.6875 C-112.74982178 164.99978516 -112.43714355 164.31207031 -112.11499023 163.60351562 C-108.60857618 155.97328194 -104.82630554 148.47371887 -101 141 C-96.52084477 141.56196043 -93.62766165 143.29740049 -89.875 145.75 C-73.68913216 155.99269073 -57.04902139 160.79691875 -38 161 C-37.32630371 161.01369629 -36.65260742 161.02739258 -35.95849609 161.04150391 C-31.63456242 161.12871812 -27.32328927 161.10532375 -23 161 C-22.07445312 160.98324219 -21.14890625 160.96648437 -20.1953125 160.94921875 C-14.36592648 160.63141733 -10.11849821 158.90004726 -5.03125 156.05859375 C-3 155 -3 155 -1 155 C-0.289999 153.68922893 0.36039986 152.3465266 1 151 C1.28746094 150.42894531 1.57492187 149.85789063 1.87109375 149.26953125 C4.04086583 144.43817208 4.21402755 141.02988385 2.81640625 135.9140625 C1.74803083 133.40925888 0.342181 132.3272359 -2 131 C-2 130.34 -2 129.68 -2 129 C-3.299375 128.5978125 -3.299375 128.5978125 -4.625 128.1875 C-8 127 -8 127 -10.625 125.5625 C-17.69690371 122.2884705 -25.45891864 121.08981354 -33.0715332 119.61889648 C-42.8636206 117.72489201 -52.42486754 115.41993148 -61.98828125 112.58935547 C-63.86137087 112.04061295 -65.74294548 111.52106563 -67.625 111.00390625 C-75.04106575 108.89627436 -81.40251293 105.97290173 -88 102 C-89.13115234 101.34644531 -89.13115234 101.34644531 -90.28515625 100.6796875 C-94.43287242 98.21431602 -97.74178937 95.61044962 -101 92 C-101.825 91.113125 -102.65 90.22625 -103.5 89.3125 C-112.07836698 78.73161202 -113.97227275 66.25686177 -113 53 C-111.6486849 43.51808314 -108.29510162 35.49290321 -104 27 C-103.34 27 -102.68 27 -102 27 C-101.8040625 26.2884375 -101.608125 25.576875 -101.40625 24.84375 C-99.54276267 21.0753645 -96.7811527 18.9824738 -93.5 16.5 C-92.55930664 15.77490234 -92.55930664 15.77490234 -91.59960938 15.03515625 C-86.67965992 11.32634859 -81.64815384 8.4671304 -76 6 C-74.96875 5.443125 -73.9375 4.88625 -72.875 4.3125 C-52.83207914 -4.83752909 -20.87884118 -6.1162723 0 0 Z " fill="#060606" transform="translate(263,96)"/>
<path d="M0 0 C3.3 0.33 6.6 0.66 10 1 C11.2794697 4.83840909 10.45390929 5.81292172 8.8125 9.4375 C6.55785759 14.60075569 4.69722526 19.77564878 2.96484375 25.1328125 C1.78783548 28.6304808 0.40400322 32.01839844 -1 35.4296875 C-2.11550297 38.29687873 -3.06027464 41.19569987 -4 44.125 C-5.59924026 49.03695223 -7.55280694 53.45521288 -10 58 C-13.63 58 -17.26 58 -21 58 C-21.29296875 51.26171875 -21.29296875 51.26171875 -21 49 C-20.0167563 47.98351989 -19.01463177 46.98515094 -18 46 C-16.87895916 43.28823244 -16.87895916 43.28823244 -16 40.25 C-14.98481288 36.95064187 -13.91608731 33.80427932 -12.5546875 30.62890625 C-10.87211636 26.70149773 -9.49461818 22.73093858 -8.125 18.6875 C-5.87652516 12.16266716 -3.28525849 6.08739073 0 0 Z " fill="#151515" transform="translate(425,166)"/>
<path d="M0 0 C5.19495222 0.54473924 9.29848096 1.74284543 14.125 3.875 C15.89230469 4.64457031 15.89230469 4.64457031 17.6953125 5.4296875 C20.59331961 6.80675471 23.25995365 8.34093248 26 10 C27.98451771 10.71143088 29.98202112 11.38991336 32 12 C32.10815225 13.76949095 32.18566083 15.54087487 32.25 17.3125 C32.29640625 18.29863281 32.3428125 19.28476563 32.390625 20.30078125 C32 23 32 23 30.171875 24.76953125 C27.21381004 26.44541337 24.14649027 27.73134407 21 29 C18.9365549 29.85188101 16.87412017 30.70621196 14.8125 31.5625 C13.80832031 31.97628906 12.80414063 32.39007813 11.76953125 32.81640625 C9.07710166 33.90817134 9.07710166 33.90817134 6.94921875 35.15234375 C5 36 5 36 0 36 C0 32.7 0 29.4 0 26 C1.32 25.67 2.64 25.34 4 25 C4 24.34 4 23.68 4 23 C8.29 21.35 12.58 19.7 17 18 C10.52074643 15.10836813 10.52074643 15.10836813 4 12.3125 C1 11 1 11 0 10 C-0.07205511 8.31391034 -0.08386068 6.62499341 -0.0625 4.9375 C-0.05347656 4.01839844 -0.04445313 3.09929687 -0.03515625 2.15234375 C-0.02355469 1.44207031 -0.01195312 0.73179687 0 0 Z " fill="#191918" transform="translate(435,178)"/>
<path d="M0 0 C1.19354839 7.16129032 1.19354839 7.16129032 0.4375 10.4375 C-1.72014809 12.78276966 -3.92184992 12.73233478 -7 13 C-7 13.66 -7 14.32 -7 15 C-10.465 16.485 -10.465 16.485 -14 18 C-14 18.66 -14 19.32 -14 20 C-12.948125 20.103125 -11.89625 20.20625 -10.8125 20.3125 C-7.07068859 20.98725288 -5.0766327 21.86344952 -2 24 C-1.01 24.66 -0.02 25.32 1 26 C1.29296875 28.3828125 1.29296875 28.3828125 1.1875 31.125 C1.14689453 32.49011719 1.14689453 32.49011719 1.10546875 33.8828125 C1.07066406 34.58148438 1.03585937 35.28015625 1 36 C-10.39932659 35.24004489 -20.96303664 28.08441793 -31 23 C-31.05395478 21.37536158 -31.09277195 19.75021459 -31.125 18.125 C-31.15980469 16.76761719 -31.15980469 16.76761719 -31.1953125 15.3828125 C-31 13 -31 13 -29 11 C-27.43728103 10.30577053 -25.84990925 9.66610213 -24.25 9.0625 C-21.24352289 7.90416033 -18.44071779 6.71527451 -15.5625 5.25 C-13 4 -13 4 -10 4 C-9.67 3.34 -9.34 2.68 -9 2 C-5.82954062 0.75938546 -3.41761705 0 0 0 Z " fill="#1A1A19" transform="translate(403,178)"/>
<path d="M0 0 C0 3 0 3 -1.875 5.1875 C-4 7 -4 7 -6 7 C-6.33 8.32 -6.66 9.64 -7 11 C-7.66 11 -8.32 11 -9 11 C-7.59928507 5.70841026 -4.14512755 3.22521956 0 0 Z " fill="#545453" transform="translate(170,112)"/>
<path d="M0 0 C0.66 0 1.32 0 2 0 C0.91720359 3.24838923 0.10963155 4.04282583 -2.4375 6.1875 C-3.05496094 6.71730469 -3.67242187 7.24710938 -4.30859375 7.79296875 C-6 9 -6 9 -8 9 C-6.76210371 5.28631113 -5.14775123 4.22645819 -2 2 C-1.34 2 -0.68 2 0 2 C0 1.34 0 0.68 0 0 Z " fill="#474747" transform="translate(57,146)"/>
<path d="M0 0 C-1.9626228 2.04795423 -3.4277307 2.94976638 -6.26953125 3.19921875 C-8.51954383 3.18858877 -10.75385562 3.12958525 -13 3 C-10.37358828 1.24905885 -8.89308789 0.54725362 -5.9375 -0.1875 C-5.24527344 -0.36667969 -4.55304688 -0.54585937 -3.83984375 -0.73046875 C-2 -1 -2 -1 0 0 Z " fill="#4E4E4F" transform="translate(104,13)"/>
<path d="M0 0 C0 4.38968456 -2.12805101 5.76905739 -5 9 C-5.66 8.01 -6.32 7.02 -7 6 C-4.69 4.02 -2.38 2.04 0 0 Z " fill="#535354" transform="translate(562,205)"/>
<path d="M0 0 C2.31 0 4.62 0 7 0 C7.93065133 2.60582371 8.14917407 3.64198224 7.0625 6.25 C6.5365625 7.11625 6.5365625 7.11625 6 8 C5.67 6.02 5.34 4.04 5 2 C3.35 1.67 1.7 1.34 0 1 C0 0.67 0 0.34 0 0 Z " fill="#70706F" transform="translate(150,350)"/>
</svg>
